<!--?xml version="1.0" standalone="no"?-->
              <svg id="sw-js-blob-svg" viewBox="0 0 100 100" xmlns="http://www.w3.org/2000/svg" version="1.1">
                    <defs> 
                        <linearGradient id="sw-gradient" x1="0" x2="1" y1="1" y2="0">
                            <stop id="stop1" stop-color="rgba(248, 117, 55, 1)" offset="0%"></stop>
                            <stop id="stop2" stop-color="rgba(251, 168, 31, 1)" offset="100%"></stop>
                        </linearGradient>
                    </defs>
                <path fill="url(#sw-gradient)" d="M23.3,-39.9C30.4,-36.2,36.4,-30.4,39.6,-23.4C42.8,-16.4,43,-8.2,41.9,-0.6C40.8,7,38.5,13.9,34.7,19.8C30.9,25.7,25.7,30.6,19.7,33.7C13.7,36.7,6.8,37.9,-0.3,38.4C-7.5,39,-15,39,-21.3,36.1C-27.6,33.2,-32.6,27.5,-36.8,21C-41,14.5,-44.4,7.3,-43.7,0.4C-43,-6.5,-38.4,-13,-33.6,-18.4C-28.8,-23.9,-23.8,-28.3,-18.2,-32.9C-12.6,-37.4,-6.3,-42.1,0.9,-43.7C8.1,-45.2,16.2,-43.7,23.3,-39.9Z" width="100%" height="100%" transform="translate(50 50)" stroke-width="0" style="transition: all 0.3s ease 0s;" stroke="url(#sw-gradient)"></path>
              </svg>